<?xml version="1.0" encoding="iso-8859-1"?>
<!-- Generator: Adobe Illustrator 18.0.0, SVG Export Plug-In . SVG Version: 6.00 Build 0)  -->
<!DOCTYPE svg PUBLIC "-//W3C//DTD SVG 1.1//EN" "http://www.w3.org/Graphics/SVG/1.1/DTD/svg11.dtd">
<svg version="1.1" id="Capa_1" xmlns="http://www.w3.org/2000/svg" xmlns:xlink="http://www.w3.org/1999/xlink" x="0px" y="0px"
	 viewBox="0 0 456 456" style="enable-background:new 0 0 456 456;" xml:space="preserve">
<g>
	<path d="M210,18H62.937c-2.761,0-5,2.239-5,5v396.695c0,2.761,2.239,5,5,5H210c2.761,0,5-2.239,5-5V23
		C215,20.239,212.761,18,210,18z M205,414.695H67.937V28H205V414.695z"/>
	<path d="M107.469,103.5h58c2.761,0,5-2.239,5-5s-2.239-5-5-5h-58c-2.761,0-5,2.239-5,5S104.707,103.5,107.469,103.5z"/>
	<path d="M107.469,121h58c2.761,0,5-2.239,5-5s-2.239-5-5-5h-58c-2.761,0-5,2.239-5,5S104.707,121,107.469,121z"/>
	<path d="M107.469,138.5h58c2.761,0,5-2.239,5-5s-2.239-5-5-5h-58c-2.761,0-5,2.239-5,5S104.707,138.5,107.469,138.5z"/>
	<path d="M76.469,408h41c2.761,0,5-2.239,5-5s-2.239-5-5-5h-41c-2.761,0-5,2.239-5,5S73.707,408,76.469,408z"/>
	<path d="M76.469,392.6h16c2.761,0,5-2.239,5-5s-2.239-5-5-5h-16c-2.761,0-5,2.239-5,5S73.707,392.6,76.469,392.6z"/>
	<path d="M163.469,45h31.4c2.761,0,5-2.239,5-5s-2.239-5-5-5h-31.4c-2.761,0-5,2.239-5,5S160.707,45,163.469,45z"/>
	<path d="M194.868,50.4h-6.4c-2.761,0-5,2.239-5,5s2.239,5,5,5h6.4c2.761,0,5-2.239,5-5S197.63,50.4,194.868,50.4z"/>
	<path d="M185.469,200h-13c-2.761,0-5,2.239-5,5s2.239,5,5,5h13c2.206,0,4,1.794,4,4c0,2.761,2.239,5,5,5s5-2.239,5-5
		C199.469,206.28,193.188,200,185.469,200z"/>
	<path d="M401.104,0H237.959c-3.827,0-7.311,1.457-9.959,3.829C225.352,1.457,221.867,0,218.041,0H54.896
		c-8.249,0-14.959,6.711-14.959,14.959v412.777c0,8.249,6.71,14.959,14.959,14.959h3.073V451c0,2.761,2.239,5,5,5h35
		c2.761,0,5-2.239,5-5v-8.305h67V451c0,2.761,2.239,5,5,5h35c2.761,0,5-2.239,5-5v-8.305h3.072c3.827,0,7.311-1.457,9.959-3.828
		c2.648,2.372,6.133,3.828,9.959,3.828h3.072V451c0,2.761,2.239,5,5,5h35c2.761,0,5-2.239,5-5v-8.305h67V451c0,2.761,2.239,5,5,5h35
		c2.761,0,5-2.239,5-5v-8.305h3.073c8.249,0,14.959-6.71,14.959-14.959V14.959C416.063,6.711,409.353,0,401.104,0z M92.969,446h-25
		v-3.305h25V446z M204.969,446h-25v-3.305h25V446z M218.041,432.695H54.896c-2.734,0-4.959-2.225-4.959-4.959V14.959
		c0-2.735,2.225-4.959,4.959-4.959h163.145c2.734,0,4.957,2.223,4.959,4.956c0,0.001,0,0.002,0,0.003v412.777
		c0,0.001,0,0.002,0,0.003C222.998,430.472,220.775,432.695,218.041,432.695z M276.031,446h-25v-3.305h25V446z M388.031,446h-25
		v-3.305h25V446z M406.063,427.736c0,2.734-2.225,4.959-4.959,4.959H237.959c-2.734,0-4.957-2.223-4.959-4.956
		c0-0.001,0-0.002,0-0.003V14.959c0-0.001,0-0.002,0-0.003c0.002-2.733,2.225-4.956,4.959-4.956h163.145
		c2.734,0,4.959,2.225,4.959,4.959V427.736z"/>
	<path d="M393.063,18H246c-2.761,0-5,2.239-5,5v396.695c0,2.761,2.239,5,5,5h147.063c2.761,0,5-2.239,5-5V23
		C398.063,20.239,395.824,18,393.063,18z M388.063,414.695H251V28h137.063V414.695z"/>
	<path d="M290.531,103.5h58c2.761,0,5-2.239,5-5s-2.239-5-5-5h-58c-2.761,0-5,2.239-5,5S287.77,103.5,290.531,103.5z"/>
	<path d="M290.531,121h58c2.761,0,5-2.239,5-5s-2.239-5-5-5h-58c-2.761,0-5,2.239-5,5S287.77,121,290.531,121z"/>
	<path d="M290.531,138.5h58c2.761,0,5-2.239,5-5s-2.239-5-5-5h-58c-2.761,0-5,2.239-5,5S287.77,138.5,290.531,138.5z"/>
	<path d="M259.531,408h41c2.761,0,5-2.239,5-5s-2.239-5-5-5h-41c-2.761,0-5,2.239-5,5S256.77,408,259.531,408z"/>
	<path d="M377.932,398h-12.923c-2.761,0-5,2.239-5,5s2.239,5,5,5h12.923c2.761,0,5-2.239,5-5S380.693,398,377.932,398z"/>
	<path d="M259.531,392.6h16c2.761,0,5-2.239,5-5s-2.239-5-5-5h-16c-2.761,0-5,2.239-5,5S256.77,392.6,259.531,392.6z"/>
	<path d="M346.531,45h31.4c2.761,0,5-2.239,5-5s-2.239-5-5-5h-31.4c-2.761,0-5,2.239-5,5S343.77,45,346.531,45z"/>
	<path d="M377.932,50.4h-6.4c-2.761,0-5,2.239-5,5s2.239,5,5,5h6.4c2.761,0,5-2.239,5-5S380.693,50.4,377.932,50.4z"/>
	<path d="M372.531,214c0,2.761,2.239,5,5,5s5-2.239,5-5c0-7.72-6.28-14-14-14h-13c-2.761,0-5,2.239-5,5s2.239,5,5,5h13
		C370.737,210,372.531,211.794,372.531,214z"/>
</g>
<g>
</g>
<g>
</g>
<g>
</g>
<g>
</g>
<g>
</g>
<g>
</g>
<g>
</g>
<g>
</g>
<g>
</g>
<g>
</g>
<g>
</g>
<g>
</g>
<g>
</g>
<g>
</g>
<g>
</g>
</svg>
