<?xml version="1.0" encoding="utf-8"?>
<!-- Generated by IcoMoon.io -->
<!DOCTYPE svg PUBLIC "-//W3C//DTD SVG 1.1//EN" "http://www.w3.org/Graphics/SVG/1.1/DTD/svg11.dtd">
<svg version="1.1" xmlns="http://www.w3.org/2000/svg" xmlns:xlink="http://www.w3.org/1999/xlink" width="512" height="512" viewBox="0 0 512 512">
<g>
</g>
	<path d="M214.948 197.888c-39.373-40.519-38.421-105.298 2.109-144.681 40.54-39.383 105.318-38.441 144.681 2.099z" fill="#000000" />
	<path d="M218.298 209.923l155.35-150.888 11.529 11.87-155.35 150.888-11.529-11.87z" fill="#000000" />
	<path d="M120.32 482.068v0c-16.66-88.904-44.083-333.803 28.139-398.521 18.688-16.743 43.223-20.183 74.988-10.537l8.929-29.399c-42.322-12.841-77.445-7.096-104.427 17.081-99.809 89.457-40.397 413.296-37.817 427.038l30.188-5.663z" fill="#000000" />
	<path d="M364.534 288.574c3.195 4.055 3.563 9.063 0.88 11.182-2.724 2.12-7.465 0.522-10.649-3.502-3.175-4.075-3.533-9.103-0.85-11.202 2.714-2.099 7.475-0.522 10.619 3.522z" fill="#000000" />
	<path d="M385.157 222.065c2.663 5.181 1.915 10.957-1.731 12.8-3.625 1.884-8.745-0.798-11.438-6.062-2.693-5.222-1.925-10.977 1.71-12.821 3.635-1.853 8.755 0.86 11.459 6.083z" fill="#000000" />
	<path d="M382.731 154.721c2.813 5.44 2.149 11.374-1.483 13.251s-8.857-1.010-11.67-6.451c-2.813-5.44-2.149-11.374 1.483-13.251 3.632-1.878 8.857 1.010 11.67 6.451z" fill="#000000" />
	<path d="M302.961 265.523c2.704 5.223 1.935 10.988-1.69 12.882-3.646 1.863-8.735-0.86-11.449-6.103-2.714-5.202-1.925-10.967 1.69-12.82 3.646-1.894 8.755 0.819 11.449 6.041z" fill="#000000" />
	<path d="M325.386 209.94c2.816 5.458 2.151 11.397-1.495 13.261-3.625 1.863-8.858-1.044-11.704-6.462-2.786-5.438-2.12-11.376 1.505-13.261 3.656-1.853 8.858 1.044 11.694 6.462z" fill="#000000" />
	<path d="M439.122 221.87c3.144 4.055 3.533 9.063 0.839 11.161-2.724 2.119-7.465 0.542-10.649-3.523-3.154-4.055-3.543-9.063-0.839-11.182 2.683-2.078 7.445-0.502 10.649 3.543z" fill="#000000" />
	<path d="M436.541 145.643c2.714 5.202 1.935 10.936-1.71 12.841-3.625 1.863-8.745-0.839-11.428-6.062-2.704-5.243-1.925-10.957 1.71-12.882 3.604-1.813 8.714 0.86 11.428 6.103z" fill="#000000" />
	<path d="M428.411 289.751c3.185 4.055 3.553 9.063 0.86 11.141-2.724 2.12-7.475 0.563-10.649-3.481-3.154-4.075-3.533-9.103-0.809-11.202 2.673-2.099 7.454-0.522 10.599 3.543z" fill="#000000" />
	<path d="M272.886 204.585c2.673 5.222 1.925 10.977-1.721 12.862-3.625 1.884-8.745-0.839-11.438-6.083-2.693-5.222-1.945-10.957 1.669-12.862 3.656-1.833 8.796 0.881 11.49 6.083z" fill="#000000" />
	<path d="M328.979 153.115c2.693 5.222 1.934 10.974-1.695 12.845-3.629 1.871-8.754-0.845-11.447-6.068-2.693-5.222-1.934-10.974 1.695-12.845 3.629-1.871 8.754 0.845 11.447 6.068z" fill="#000000" />
	<path d="M383.262 101.346c2.693 5.202 1.935 10.936-1.69 12.82-3.656 1.864-8.745-0.86-11.469-6.103-2.693-5.181-1.935-10.936 1.721-12.8 3.615-1.853 8.745 0.84 11.438 6.082z" fill="#000000" />
</svg>
